<?xml version="1.0" standalone="no"?>
<!DOCTYPE svg PUBLIC "-//W3C//DTD SVG 20010904//EN"
 "http://www.w3.org/TR/2001/REC-SVG-20010904/DTD/svg10.dtd">
<svg version="1.0" xmlns="http://www.w3.org/2000/svg"
 width="552.000000pt" height="552.000000pt" viewBox="0 0 552.000000 552.000000"
 preserveAspectRatio="xMidYMid meet">
<metadata>
Created by potrace 1.14, written by Peter Selinger 2001-2017
</metadata>
<g transform="translate(0.000000,552.000000) scale(0.100000,-0.100000)"
fill="#000000" stroke="none">
<path d="M2648 5515 c-2 -2 -22 -6 -43 -9 -62 -8 -193 -54 -264 -93 -115 -62
-219 -148 -306 -254 -25 -30 -108 -155 -125 -189 -7 -14 -16 -27 -19 -30 -12
-10 -795 -1566 -938 -1865 -39 -82 -109 -226 -154 -320 -78 -163 -122 -256
-176 -375 -14 -30 -57 -122 -95 -205 -185 -395 -269 -595 -284 -675 -3 -14 -7
-33 -10 -42 -3 -10 -7 -28 -9 -40 -3 -13 -9 -45 -14 -73 -10 -52 -8 -311 3
-355 6 -28 14 -64 20 -95 14 -67 77 -221 124 -300 167 -281 426 -473 747 -554
80 -20 102 -23 230 -27 314 -9 620 96 930 320 39 28 81 60 94 71 92 76 194
169 287 264 l109 110 100 -102 c202 -206 390 -357 590 -473 28 -16 52 -29 55
-30 3 0 34 -15 70 -32 63 -32 219 -86 277 -97 47 -8 77 -15 103 -21 42 -10
302 -13 350 -4 25 4 59 11 75 14 152 27 377 133 500 236 152 127 314 352 360
500 19 62 35 117 36 122 0 4 5 22 10 40 5 18 11 47 14 63 2 17 8 53 14 80 5
28 9 97 9 154 -1 97 -10 156 -42 286 -6 27 -29 93 -41 120 -7 17 -23 55 -35
85 -12 30 -34 82 -50 115 -15 33 -38 83 -50 110 -12 28 -40 88 -62 135 -44 93
-108 229 -140 300 -11 25 -43 92 -71 150 -27 58 -64 137 -82 175 -33 72 -112
237 -242 505 -107 220 -495 996 -590 1180 -94 180 -259 501 -282 545 -24 47
-84 140 -93 143 -4 2 -8 9 -8 15 0 12 -83 111 -145 172 -110 110 -254 190
-415 231 -58 15 -311 30 -322 19z m292 -386 c93 -30 165 -74 243 -149 37 -35
67 -68 67 -71 0 -4 17 -33 39 -65 21 -33 77 -133 125 -224 91 -174 693 -1380
791 -1585 153 -318 186 -387 230 -480 26 -55 65 -138 87 -185 22 -47 58 -123
80 -170 22 -47 54 -114 70 -150 16 -36 36 -78 44 -94 8 -16 14 -35 14 -43 0
-7 5 -13 10 -13 6 0 10 -6 10 -13 0 -8 14 -41 30 -75 17 -34 30 -64 30 -67 0
-2 16 -37 35 -77 41 -84 90 -221 107 -299 24 -116 17 -304 -16 -429 -70 -255
-294 -477 -561 -556 -79 -23 -83 -24 -206 -28 -337 -13 -658 154 -1044 542
-133 133 -134 135 -117 157 89 114 207 274 247 335 28 41 53 77 56 80 3 3 8
12 12 20 4 8 18 33 31 55 72 115 220 410 231 460 1 5 5 17 8 25 29 76 65 208
82 305 27 148 25 351 -4 465 -90 353 -363 604 -731 675 -70 14 -275 14 -345 1
-109 -21 -122 -25 -193 -53 -268 -107 -448 -297 -537 -568 -32 -100 -39 -150
-39 -295 -1 -126 4 -169 35 -310 10 -46 82 -269 98 -305 5 -11 30 -64 55 -117
25 -53 46 -101 46 -107 0 -6 4 -11 10 -11 5 0 12 -11 16 -25 3 -14 10 -25 15
-25 5 0 9 -9 9 -20 0 -11 4 -20 9 -20 5 0 15 -16 22 -35 7 -19 16 -35 20 -35
4 0 12 -13 19 -30 7 -16 16 -30 21 -30 5 0 9 -5 9 -11 0 -9 136 -217 150 -229
3 -3 17 -21 30 -40 14 -19 30 -42 37 -50 7 -8 33 -42 57 -74 l44 -60 -61 -64
c-356 -373 -651 -558 -962 -607 -39 -7 -224 -7 -250 -1 -126 28 -167 41 -233
71 -107 50 -223 141 -297 235 -49 62 -129 216 -140 269 -2 9 -10 46 -18 84
-20 94 -14 270 12 367 12 41 23 83 26 93 8 33 106 258 177 405 37 78 68 145
68 148 0 3 18 41 40 85 21 43 37 79 35 79 -3 0 9 23 25 50 16 28 28 50 25 50
-2 0 17 41 42 92 53 108 67 140 65 151 -1 4 2 7 8 7 5 0 10 4 10 9 0 25 655
1360 675 1373 5 4 6 8 2 8 -5 0 0 15 11 33 11 17 73 136 138 262 65 127 137
268 161 315 25 47 65 126 90 175 26 50 50 92 55 93 4 2 8 8 8 13 0 29 125 175
195 227 62 46 169 89 245 99 25 3 46 6 48 8 10 9 159 -9 212 -26z m-25 -1995
c294 -65 464 -340 420 -681 -6 -52 -7 -58 -20 -118 -5 -22 -9 -42 -10 -45 -2
-12 -49 -148 -60 -175 -30 -71 -90 -200 -95 -205 -3 -3 -16 -27 -30 -55 -14
-27 -28 -51 -32 -53 -5 -2 -8 -9 -8 -17 0 -7 -7 -18 -15 -25 -9 -7 -13 -15
-11 -17 3 -3 0 -10 -5 -17 -5 -6 -37 -54 -72 -106 -34 -52 -65 -96 -69 -98 -5
-2 -8 -10 -8 -17 0 -7 -4 -15 -8 -17 -4 -1 -29 -32 -55 -68 -80 -111 -77 -108
-88 -88 -5 9 -15 23 -22 30 -7 7 -37 47 -68 88 -251 338 -408 653 -464 930 -6
32 -19 146 -18 171 3 208 68 361 197 465 154 125 334 164 541 118z"/>
</g>
</svg>
