<?xml version="1.0" standalone="no"?>
<!DOCTYPE svg PUBLIC "-//W3C//DTD SVG 20010904//EN"
 "http://www.w3.org/TR/2001/REC-SVG-20010904/DTD/svg10.dtd">
<svg version="1.0" xmlns="http://www.w3.org/2000/svg"
 width="1000.000000pt" height="1000.000000pt" viewBox="0 0 1000.000000 1000.000000"
 preserveAspectRatio="xMidYMid meet">
<metadata>
Created by potrace 1.14, written by Peter Selinger 2001-2017
</metadata>
<g transform="translate(0.000000,1000.000000) scale(0.100000,-0.100000)"
fill="#000000" stroke="none">
<path d="M8670 9144 c-613 -256 -1718 -716 -2455 -1024 -737 -307 -1523 -634
-1747 -727 l-408 -168 0 -720 0 -720 955 -478 955 -477 0 -1675 0 -1675 1915
0 1915 0 0 4065 c0 2236 -3 4065 -7 4064 -5 0 -510 -210 -1123 -465z"/>
<path d="M2550 7524 c-383 -52 -759 -182 -1073 -371 -522 -315 -925 -792
-1150 -1363 -183 -465 -233 -987 -141 -1490 22 -119 52 -248 60 -259 2 -2 34
25 72 59 l69 62 -18 81 c-33 149 -49 290 -56 467 -29 846 351 1639 1029 2145
342 256 698 409 1133 486 89 16 177 23 340 26 335 8 565 -24 862 -118 l131
-42 66 58 c36 31 66 61 66 64 0 11 -194 80 -329 117 -153 42 -302 70 -440 84
-145 14 -495 11 -621 -6z"/>
<path d="M3005 5355 c-434 -233 -1236 -661 -1782 -952 l-992 -528 -1 -1197 0
-1198 1795 0 1795 0 0 2150 c0 1714 -3 2150 -12 2149 -7 -1 -368 -192 -803
-424z"/>
<path d="M4790 4739 c-304 -37 -588 -239 -723 -515 -73 -147 -98 -260 -98
-430 1 -232 83 -447 235 -614 177 -194 403 -303 660 -317 437 -24 842 275 958
707 19 72 22 109 22 240 -1 139 -3 164 -28 245 -35 115 -64 180 -122 266 -199
300 -548 461 -904 418z"/>
<path d="M293 1018 c9 -105 31 -181 82 -283 80 -163 195 -278 359 -360 l88
-45 4273 0 4273 0 88 44 c108 54 189 119 265 209 103 122 179 314 179 449 l0
58 -4806 0 -4807 0 6 -72z"/>
</g>
</svg>
